<svg xmlns="http://www.w3.org/2000/svg" xmlns:xlink="http://www.w3.org/1999/xlink" id="Layer_1" x="0" y="0" version="1.1" viewBox="-26 -52 559 897" style="enable-background:new -26 -52 559 897" xml:space="preserve"><g><path d="M3779.5,8649.9c-344-16-623-85-915-228c-231-114-406-241-600-436c-61-60-145-137-188-169c-432-325-715-757-806-1230 c-109-564,21-1117,384-1641c250-360,780-877,1547-1511c451-373,600-505,803-708c215-216,275-293,350-448c55-114,75-188,82-298 c6-96-6-173-39-257c-21-53-27-59-73-76c-136-51-374-73-521-46c-401,71-763,376-1088,916c-21,35-43,63-50,63s-32-13-57-29 c-74-48-229-141-233-141c-3,0-54-31-113-68s-135-84-168-102c-33-19-67-39-77-45c-9-5-56-34-105-63c-48-29-153-94-233-143 s-152-92-160-96c-26-12-144-86-180-114c-19-15-137-88-262-164c-130-78-228-143-228-151s30-70,66-137c207-379,396-640,644-887 c219-218,401-350,665-480c247-122,484-196,775-241c172-27,628-38,819-19c636,61,1161,302,1561,716c47,48,128,120,181,160 c402,304,684,722,804,1189c61,240,70,318,70,640c0,259-3,304-23,418c-84,467-268,823-647,1257c-192,218-401,409-1095,995 c-637,539-1034,894-1208,1081c-152,163-223,311-223,465c0,43,2,83,5,88c20,32,266,41,394,15c322-65,649-312,972-731 c39-51,70-83,82-83c10,0,283,234,615,528c328,290,684,605,792,700s197,181,199,191s-38,62-100,131c-399,446-754,740-1106,918 c-314,159-659,255-962,268c-63,2-135,6-160,7C3944.5,8655.9,3859.5,8653.9,3779.5,8649.9z M4349.5,8591.9 c671-123,1188-450,1813-1144c53-60,97-112,96-115c-1-12-411-367-423-367c-6,0-20-13-31-28c-11-16-164-156-340-312l-320-283l-18,24 c-239,311-459,523-675,651c-99,59-246,117-344,137c-112,23-311,21-416-4c-200-48-373-182-450-349c-32-70-34-82-34-176 c0-179,64-318,229-494c182-195,573-545,1213-1086c693-585,897-771,1085-985c379-434,563-790,647-1257c20-113,23-161,23-398 c0-300-10-384-70-620c-97-379-302-729-586-1000c-105-100-185-166-191-159c-9,8-63-29-92-63c-48-57-291-191-482-266 c-202-79-481-143-735-167c-188-18-606-8-779,19c-290,45-528,119-775,241c-385,190-680,444-972,836c-118,159-345,527-332,538 c46,36,763,456,773,453c16-7,36,11,30,27c-3,9,131,99,212,142c28,15,203,122,231,141c21,14,23,13,45-23c225-384,515-687,794-829 c164-84,300-115,503-115c125,0,235,15,340,46c17,5,22,4,17-4c-13-22,24-13,47,11c12,13,53,40,91,61c193,105,351,279,418,462 c18,49,21,82,22,199c1,165-11,222-79,363c-75,156-135,232-355,453c-208,208-355,338-808,713c-766,633-1288,1142-1537,1501 c-305,440-449,908-415,1355c24,318,109,596,262,848c74,123,192,277,231,301c18,11,43,38,56,61c24,42,155,164,277,255 c293,221,660,367,1050,419C3762.5,8627.9,4196.5,8619.9,4349.5,8591.9z M1992.5,7653.9c-321-485-398-1123-203-1693 c70-208,178-417,315-615c250-360,780-877,1547-1511c451-373,600-505,803-708c215-216,275-292,350-448c65-136,80-200,79-343 c-1-134-15-186-80-302c-60-108-201-244-326-317c-53-31-55-28-31,35c12,33,17,79,17,184c1,165-12,222-79,363 c-75,156-135,232-355,453c-208,208-355,338-808,713c-766,633-1288,1142-1537,1501c-305,440-449,908-415,1355 c34,454,190,817,504,1174c58,66,264,256,277,256C2054.5,7750.9,2027.5,7706.9,1992.5,7653.9z M4087.5,7124.9 c212-43,445-176,659-378c129-121,368-406,360-429c-2-6-95-93-208-193l-204-182l-18,24c-105,137-202,250-307,355 c-191,192-351,304-540,380c-145,58-234,72-415,67l-153-4l24,47c28,57,121,159,181,200c71,49,158,88,240,108 C3805.5,7144.9,3980.5,7146.9,4087.5,7124.9z M1415.5,1638.9c233-416,511-757,812-997c275-219,616-385,967-472 c225-55,364-71,669-76c307-6,445,3,666,43c255,46,474,119,698,233l117,60l-75-71c-377-356-881-572-1471-628c-188-18-606-8-779,19 c-465,72-868,244-1222,521c-180,141-402,382-575,625c-130,183-342,550-326,566c11,11,446,277,454,278 C1354.5,1740.9,1383.5,1694.9,1415.5,1638.9z" transform="translate(0.000000,897.000000) scale(0.100000,-0.100000)"/></g></svg>